<svg width="79" height="37" viewBox="0 0 79 37" fill="none" xmlns="http://www.w3.org/2000/svg">
<path d="M7.94299 21.3438V28.5522L25.8313 28.4694" stroke="#D9FBFF"/>
<path d="M7.94299 21.8503H25.5863C26.7298 21.8503 28.4451 23.3396 28.4451 24.9944C28.4451 26.9801 27.0566 28.4694 25.7496 28.4694" stroke="#D9FBFF"/>
<path d="M1 14.6519V35.5022L27.3016 35.4195C28.5676 35.4195 31.4673 33.5165 32.0391 33.02C33.1827 32.0272 35.6177 29.2134 35.5514 25.6563C35.4698 21.2711 33.0529 18.0204 31.3648 17" stroke="#D9FBFF"/>
<path d="M7.86128 8.11557V7.61557H7.37086L7.36137 8.10589L7.86128 8.11557ZM24.6061 14.321L24.313 13.9159L24.6061 14.321ZM0.995832 14.152L0.495849 14.1561L0.504186 15.1561L1.00417 15.1519L0.995832 14.152ZM8.2795 12.3449L8.36118 8.12525L7.36137 8.10589L7.27969 12.3256L8.2795 12.3449ZM7.86128 8.61557H23.6259V7.61557H7.86128V8.61557ZM23.6259 8.61557C24.0214 8.61557 24.5947 8.86805 25.0859 9.37016C25.5656 9.8606 25.9031 10.5267 25.9031 11.2597H26.9031C26.9031 10.2137 26.4237 9.30778 25.8007 8.6709C25.1892 8.04569 24.3739 7.61557 23.6259 7.61557V8.61557ZM25.9031 11.2597C25.9031 12.0261 25.6956 12.5355 25.4158 12.9192C25.1244 13.319 24.7379 13.6084 24.313 13.9159L24.8992 14.7261C25.3149 14.4253 25.827 14.0528 26.2239 13.5083C26.6325 12.9479 26.9031 12.2307 26.9031 11.2597H25.9031ZM24.313 13.9159C24.1399 14.0411 23.8746 14.1454 23.1868 14.2001C22.4983 14.2548 21.4686 14.2555 19.8238 14.2347C16.5483 14.1934 10.9266 14.0692 0.995832 14.152L1.00417 15.1519C10.9221 15.0693 16.5317 15.1933 19.8112 15.2347C21.4438 15.2553 22.5226 15.256 23.266 15.1969C24.0102 15.1378 24.5004 15.0146 24.8992 14.7261L24.313 13.9159Z" fill="#D9FBFF"/>
<path d="M7.86128 12.3353L1 1L24.361 1.08274C26.2397 1.49643 28.0699 2.31546 28.9352 2.98574C30.3238 4.06135 31.3693 4.72326 32.6109 7.86735C33.9178 11.1769 32.7534 15.928 31.3648 17.5" stroke="#D9FBFF"/>
<path d="M43.7051 26.1597V12.4239H71.168L67.0119 18.2038H50.5504V35.3396L43.7051 26.1597Z" stroke="#D9FBFF"/>
<path d="M43.7051 6.7783V1H78.2578V6.7783H43.7051Z" stroke="#D9FBFF"/>
</svg>
